<svg id="Capa_1" enable-background="new 0 0 512 512" height="512" viewBox="0 0 512 512" width="512" xmlns="http://www.w3.org/2000/svg"><g><g><path d="m413.862 366.088-84.486-24.849c-10.235-3.01-17.263-12.403-17.263-23.071v-54.151h-112.226v54.151c0 10.668-7.028 20.061-17.263 23.071l-84.486 24.849c-20.469 6.02-34.526 24.806-34.526 46.142v68.221h384.774v-68.221c.001-21.336-14.055-40.122-34.524-46.142z" fill="#615260"/><path d="m199.887 264.016v54.151c0 10.668-7.028 20.061-17.263 23.071l6.805 23.073c18.38-5.418 31.749-21.475 34.128-40.168.239-1.875 1.193-3.584 2.681-4.75 1.52-1.191 3.473-1.655 5.377-1.331 26.927 4.582 54.932 1.331 80.498-9.498v-44.548z" fill="#4e3d4d"/><path d="m413.862 366.088-84.486-24.849c-1.646-.484-3.172-1.186-4.637-1.979-17.463 17.854-41.791 28.966-68.739 28.966s-51.276-11.112-68.739-28.966c-1.464.793-2.99 1.495-4.637 1.979l-84.486 24.849c-20.469 6.02-34.525 24.806-34.525 46.142l24.048 92.27h24.048l21.77-16.944 16.072 16.944h90.416l16.878-16.944 16.941 16.944h86.423l17.831-16.944 22.25 16.944h48.097v-92.271c0-21.335-14.056-40.121-34.525-46.141z" fill="#736572"/><g fill="#615260"><path d="m183.855 424.339h-32.065v64.129h32.065c4.427 0 8.016-3.589 8.016-8.016v-48.097c0-4.428-3.589-8.016-8.016-8.016z"/><path d="m328.145 488.468h32.065v-64.129h-32.065c-4.427 0-8.016 3.589-8.016 8.016v48.097c0 4.427 3.589 8.016 8.016 8.016z"/><path d="m239.968 366.773v137.727h32.065v-137.727c-5.225.881-10.555 1.453-16.032 1.453s-10.808-.572-16.033-1.453z"/><path d="m87.661 412.228c0-10.592 7.1-20.079 17.261-23.07l84.506-24.847c5.409-1.597 10.576-4.243 15.351-7.875l2.274-1.729c-7.245-4.307-13.933-9.457-19.793-15.448-1.465.793-2.99 1.495-4.637 1.979l-84.486 24.849c-20.469 6.02-34.525 24.806-34.525 46.142v92.27h24.048v-92.271z"/></g><path d="m141.393 342.961-24.048 7.48c-3.352 1.043-5.635 4.145-5.635 7.655v146.404h40.081v-153.885c-.001-5.404-5.238-9.259-10.398-7.654z" fill="#4e3d4d"/><path d="m370.607 342.961 24.048 7.48c3.352 1.043 5.635 4.145 5.635 7.655v146.404h-40.08v-153.885c0-5.404 5.237-9.259 10.397-7.654z" fill="#4e3d4d"/><path d="m256 296.081c-57.554 0-104.21-46.656-104.21-104.21v-64.129h208.42v64.129c0 57.553-46.657 104.21-104.21 104.21z" fill="#736572"/><path d="m191.871 191.871v-64.129h-40.081v64.129c0 57.553 46.656 104.21 104.21 104.21 6.86 0 13.551-.705 20.04-1.97-47.957-9.35-84.169-51.547-84.169-102.24z" fill="#615260"/><path d="m151.79 119.726v61.793c0 10.845 7.258 20.348 17.721 23.201l40.081 10.931c15.298 4.172 30.376-7.344 30.376-23.201v-.579c0-8.855 7.178-16.032 16.032-16.032s16.032 7.178 16.032 16.032v.579c0 15.857 15.078 27.373 30.376 23.201l40.081-10.931c10.462-2.853 17.721-12.356 17.721-23.201v-61.793z" fill="#1badde"/><path d="m280.048 7.5h-48.097c-61.981 0-112.226 50.245-112.226 112.226v88.177c17.709 0 32.065-14.356 32.065-32.065v-24.048c0-8.855 7.178-16.032 16.032-16.032h176.355c8.854 0 16.032 7.178 16.032 16.032v24.048c0 17.708 14.356 32.065 32.065 32.065v-88.177c0-61.981-50.245-112.226-112.226-112.226z" fill="#615260"/><path d="m207.903 10.148c-50.412 11.018-88.177 55.86-88.177 109.578v88.177c17.709 0 32.065-14.356 32.065-32.065v-24.048c0-8.855 7.178-16.032 16.032-16.032h40.081v-125.61z" fill="#4e3d4d"/><g fill="#4bc3ef"><path d="m214.583 159.806h-30.809c-4.383 0-7.936 3.553-7.936 7.936v7.717c0 3.579 2.396 6.715 5.849 7.657l25.608 6.981c4.372 1.192 8.578-1.732 9.49-6.171.873-4.247 2.396-8.275 4.499-11.96 3.097-5.425-.454-12.16-6.701-12.16z"/><path d="m336.173 175.378-.005-7.642c-.003-4.381-3.555-7.93-7.936-7.93h-30.665c-6.034 0-9.483 6.438-6.632 11.756 1.892 3.53 3.3 7.454 4.165 11.668.943 4.592 5.303 7.616 9.84 6.433l25.301-6.601c3.495-.911 5.934-4.07 5.932-7.684z"/></g></g><g><path d="m415.978 358.893-8.283-2.436c-.639-6.13-4.817-11.312-10.812-13.177l-24.049-7.48c-4.759-1.48-9.792-.635-13.808 2.321-1.213.893-2.249 1.947-3.133 3.1l-24.401-7.177c-6.994-2.057-11.879-8.585-11.879-15.876v-34.408c0-.037-.005-.073-.006-.11 25.365-17.633 43.111-45.492 47.202-77.563 6.887 5.807 15.772 9.317 25.465 9.317 4.142 0 7.5-3.358 7.5-7.5v-88.178c0-66.018-53.709-119.726-119.726-119.726h-48.097c-66.017 0-119.726 53.708-119.726 119.726v88.178c0 4.142 3.358 7.5 7.5 7.5 9.693 0 18.578-3.509 25.465-9.317 4.091 32.07 21.838 59.93 47.202 77.563-.001.037-.006.073-.006.11v34.408c0 7.291-4.885 13.819-11.879 15.876l-24.401 7.177c-.884-1.153-1.92-2.207-3.133-3.1-4.015-2.957-9.048-3.803-13.808-2.321l-24.049 7.48c-5.996 1.865-10.173 7.047-10.812 13.177l-8.283 2.436c-23.498 6.911-39.909 28.844-39.909 53.337v92.27c0 4.142 3.358 7.5 7.5 7.5s7.5-3.358 7.5-7.5v-92.27c0-17.885 11.983-33.9 29.142-38.947l3.955-1.163v132.38c0 4.142 3.358 7.5 7.5 7.5s7.5-3.358 7.5-7.5v-146.405c0-.227.146-.425.363-.493l24.049-7.48c.081-.025.249-.078.459.077.21.154.21.331.21.416v17.61c0 4.142 3.358 7.5 7.5 7.5s7.5-3.358 7.5-7.5v-12.306l25.45-7.485c.288-.085.563-.195.848-.288 13.367 12.389 29.455 20.883 46.879 24.907v131.447c0 4.142 3.358 7.5 7.5 7.5s7.5-3.358 7.5-7.5v-129.125c2.823.228 5.668.35 8.532.35s5.709-.122 8.532-.35v129.125c0 4.142 3.358 7.5 7.5 7.5s7.5-3.358 7.5-7.5v-131.447c17.425-4.024 33.512-12.519 46.879-24.907.284.093.56.203.848.288l25.45 7.485v60.919h-24.564c-8.556 0-15.516 6.96-15.516 15.516v48.097c0 8.556 6.96 15.516 15.516 15.516h24.564v8.532c0 4.142 3.358 7.5 7.5 7.5s7.5-3.358 7.5-7.5v-153.884c0-.085 0-.261.21-.416.211-.155.379-.102.459-.077l24.049 7.48c.217.067.363.266.363.493v146.405c0 4.142 3.358 7.5 7.5 7.5s7.5-3.358 7.5-7.5v-132.38l3.955 1.163c17.158 5.046 29.142 21.062 29.142 38.947v92.27c0 4.142 3.358 7.5 7.5 7.5s7.5-3.358 7.5-7.5v-92.27c.001-24.493-16.41-46.426-39.908-53.337zm-288.752-159.66v-79.507c0-57.747 46.98-104.726 104.726-104.726h48.097c57.746 0 104.726 46.979 104.726 104.726v79.507c-9.889-3.177-17.064-12.463-17.064-23.394v-24.048c0-12.976-10.557-23.532-23.532-23.532h-8.016c-4.142 0-7.5 3.358-7.5 7.5s3.358 7.5 7.5 7.5h8.016c4.705 0 8.532 3.828 8.532 8.532v29.729c0 7.442-5.015 14.007-12.194 15.965l-40.08 10.931c-5.017 1.368-10.266.342-14.399-2.814-4.133-3.157-6.503-7.95-6.503-13.151v-.579c0-12.976-10.557-23.532-23.532-23.532s-23.532 10.557-23.532 23.532v.579c0 5.201-2.371 9.994-6.503 13.151-4.133 3.157-9.381 4.184-14.399 2.814l-40.08-10.931c-7.18-1.958-12.194-8.523-12.194-15.965v-29.729c0-4.705 3.828-8.532 8.532-8.532h136.274c4.142 0 7.5-3.358 7.5-7.5s-3.358-7.5-7.5-7.5h-136.278c-12.976 0-23.532 10.557-23.532 23.532v24.048c0 10.931-7.176 20.217-17.065 23.394zm33.634 10.026c2.088 1.131 4.316 2.053 6.678 2.697l40.081 10.931c2.778.757 5.593 1.13 8.382 1.13 6.816 0 13.478-2.225 19.069-6.496 7.879-6.018 12.398-15.156 12.398-25.071v-.579c0-4.705 3.828-8.532 8.532-8.532s8.532 3.828 8.532 8.532v.579c0 9.915 4.519 19.053 12.398 25.071s17.883 7.973 27.451 5.366l40.081-10.931c2.362-.644 4.59-1.566 6.678-2.697-8.214 45.056-47.75 79.322-95.14 79.322s-86.927-34.266-95.14-79.322zm37.895 130.498c5.382-5.734 8.632-13.402 8.632-21.59v-25.731c14.705 7.137 31.199 11.145 48.613 11.145s33.908-4.007 48.613-11.145v25.731c0 8.188 3.25 15.856 8.632 21.59-15.99 13.56-36.043 20.969-57.245 20.969s-41.255-7.409-57.245-20.969zm129.39 141.211c-.285 0-.516-.231-.516-.516v-48.097c0-.285.231-.516.516-.516h24.564v49.129z"/><path d="m183.855 416.839h-24.564v-16.548c0-4.142-3.358-7.5-7.5-7.5s-7.5 3.358-7.5 7.5v104.209c0 4.142 3.358 7.5 7.5 7.5s7.5-3.358 7.5-7.5v-8.532h24.564c8.556 0 15.516-6.96 15.516-15.516v-48.097c0-8.556-6.96-15.516-15.516-15.516zm.516 63.613c0 .285-.231.516-.516.516h-24.564v-49.129h24.564c.285 0 .516.231.516.516z"/></g></g></svg>